# xmcd
#
# Track frame offsets:
#   182
#   12037
#   25046
#   39721
#   54156
#   66530
#   79831
#   92638
#   104954
#   118786
#   131904
#   141367
#   154601
#   165563
#   178472
#   191353
#   202547
#   216152
#
# Disc length: 3040 seconds
#
# Revision: 0
# Processed by: cddbd v1.5.2PL0 Copyright (c) Steve Scherf et al.
# Submitted via: GXTranscoder 2.0.1939
#
DISCID=fe0bde12
DTITLE=Diversen - Early Country Music
DYEAR=1900
DGENRE=Country
TTITLE0=Gambler's guitar - Merle Travis
TTITLE1=Billy boy - Burl Ives&capt Stubby&the Buccaneers
TTITLE2=The marshall's daughter - Tex Ritter
TTITLE3=Anything that's part of you - Eddie Arnold, The Te
TTITLE4=Two roads - Hawkshaw Hawkins
TTITLE5=Tenneessee waltz - Cowboy Copas
TTITLE6=I'm blue, I'm lonesome - Bill Monroe and his bluegra
TTITLE7=No mother or dad - Flatt and Scruggs
TTITLE8=Hallelujah I'm a bum - Carson Robison and his Pionee
TTITLE9=Peg-leg Jack - Carson Robison and his Pioneers
TTITLE10=Coming round the mountain - Carson Robison and his  
TTITLE11=Pistol packin' papa - Jimmie Rodgers
TTITLE12=High noon - Tex Ritter
TTITLE13=A gold mine in your heart - Gene Autry
TTITLE14=South of the border (down Mexico way) - Gene Autry
TTITLE15=Single saddle - Vaughn Monroe and his orchestra
TTITLE16=Riders in the sky ( a cow boy legend) - Vaughn Mon
TTITLE17=The last round up - Sons of the pioneers
EXTD=
EXTT0=
EXTT1=
EXTT2=
EXTT3=
EXTT4=
EXTT5=
EXTT6=
EXTT7=
EXTT8=
EXTT9=
EXTT10=
EXTT11=
EXTT12=
EXTT13=
EXTT14=
EXTT15=
EXTT16=
EXTT17=
PLAYORDER=
